<svg width="117" height="56" viewBox="0 0 117 56" fill="none" xmlns="http://www.w3.org/2000/svg">
<path d="M22.3056 35.9178C21.0321 37.8843 20.349 40.1781 20.3381 42.5247C20.3381 48.8338 25.4633 53.5144 31.7517 52.9515C38.0401 52.3886 43.1301 46.8009 43.1219 40.4891V21.376L46.2362 21.1028L46.2525 33.7783L52.3615 33.2318C54.0141 33.0861 55.5499 32.3145 56.658 31.0733C57.0847 30.6077 57.4459 30.0855 57.7314 29.5213L59.332 29.3764C59.332 29.3764 59.8755 31.1525 60.3728 32.4039C60.9255 33.6865 61.7532 34.8305 62.7969 35.7538C63.826 36.6766 65.0267 37.3851 66.3297 37.8386C67.7156 38.325 69.8217 38.448 71.387 38.3086L93.3719 36.3386C95.7629 36.1355 98.108 35.5603 100.323 34.6336C100.595 34.5106 100.889 34.3822 101.169 34.2428C102.164 34.7163 103.237 35.0016 104.334 35.0844C104.606 35.1035 104.894 35.1145 105.174 35.1145C109.731 35.1145 113.971 32.2755 116.642 27.3818L113.968 25.9063C111.726 30.0049 108.21 32.2919 104.563 32.0241H104.451C105.477 31.1063 106.296 29.9796 106.855 28.719C107.414 27.4583 107.7 26.0925 107.693 24.7123C107.693 22.7586 106.962 20.9388 105.72 19.8404C104.943 19.1573 103.582 18.3977 101.492 18.6791C98.5352 19.0726 96.6846 21.4115 96.0949 23.8707L90.6354 24.3598V21.5591C92.0062 19.4251 92.74 16.9407 92.7496 14.4002C92.7496 7.53099 87.1759 2.43781 80.3413 3.04987C77.4655 3.32614 74.7551 4.52778 72.6126 6.47629L6.02206 12.4274C4.38307 12.6001 2.86424 13.372 1.75406 14.5966C0.643875 15.8211 0.0196696 17.413 0 19.0699V37.9234L22.3056 35.9178ZM101.272 30.6661C100.54 30.0374 99.9551 29.2544 99.5583 28.3727C99.1614 27.4911 98.9624 26.5324 98.9755 25.5648C98.9755 24.6658 99.519 22.0318 101.929 21.7094C102.085 21.6882 102.242 21.6773 102.4 21.6766C102.889 21.6551 103.368 21.82 103.742 22.1383C104.438 22.7504 104.682 23.8597 104.68 24.6931C104.647 27.4966 103.131 29.3956 101.261 30.6661H101.272Z" fill="#FB521C"/>
<path d="M43.0977 18.1505L48.1333 17.6751C48.3017 17.6564 48.4721 17.674 48.6332 17.7268C48.7943 17.7795 48.9424 17.8662 49.0676 17.981C49.1929 18.0957 49.2923 18.236 49.3594 18.3925C49.4265 18.5489 49.4597 18.7179 49.4567 18.8882V30.2359L52.3291 29.9817C53.0996 29.9106 53.8163 29.5542 54.3401 28.9816C54.8639 28.409 55.1573 27.6611 55.1635 26.8832V11.3086L43.0977 12.4507V18.1505Z" fill="white"/>
<path d="M68.4852 27.4987V10.1562L62.7757 10.6563V12.4105L57.2754 12.8941V18.6349L62.7757 18.1485V20.2716L57.2754 20.7552V26.4386L62.7757 25.9522V28.0015L68.4852 27.4987Z" fill="white"/>
<path d="M32.4869 25.4637L34.6881 25.2697V31.4586L39.8351 31.005V12.668L34.6881 13.1188V19.5317L32.4869 19.7257V13.3128L27.3398 13.7664V32.1062L32.4869 31.6526V25.4637Z" fill="white"/>
<path d="M21.4905 19.9425L25.3331 19.59V13.9258L6.03854 15.6199C5.27491 15.6986 4.56712 16.0582 4.05102 16.6296C3.53493 17.201 3.24689 17.9438 3.24219 18.7157V34.2056L25.3303 32.2656V26.6041L21.4905 26.9538C21.322 26.9725 21.1516 26.9548 20.9905 26.9021C20.8294 26.8493 20.6813 26.7627 20.5561 26.6479C20.4309 26.5331 20.3314 26.3929 20.2643 26.2364C20.1972 26.08 20.1641 25.911 20.167 25.7406V21.3879C20.1732 21.0258 20.3114 20.6786 20.5554 20.4122C20.7993 20.1457 21.1321 19.9786 21.4905 19.9425ZM10.1991 20.918L14.5472 20.5546V27.5577L10.1991 27.9211C10.0305 27.9393 9.86003 27.9213 9.69892 27.8682C9.53781 27.8152 9.38976 27.7282 9.2646 27.6133C9.13945 27.4983 9.04005 27.3578 8.97299 27.2013C8.90593 27.0447 8.87274 26.8756 8.87564 26.7052V22.3661C8.88146 22.0018 9.02088 21.6526 9.26714 21.3853C9.5134 21.118 9.84914 20.9516 10.21 20.918H10.1991Z" fill="white"/>
<path d="M31.6956 33.2944C27.1953 33.6906 23.543 37.6662 23.543 42.2074C23.543 46.7486 27.1926 50.0822 31.6956 49.686C36.1985 49.2898 39.8482 45.3005 39.8482 40.7729C39.8482 36.2453 36.1985 32.8927 31.6956 33.2944ZM31.6956 43.9097C31.3895 43.9426 31.0799 43.9098 30.7873 43.8134C30.4947 43.717 30.2259 43.5592 29.9985 43.3505C29.7711 43.1418 29.5904 42.8869 29.4684 42.6027C29.3464 42.3185 29.2857 42.0114 29.2906 41.7019C29.3024 41.0436 29.5536 40.4124 29.9967 39.9276C30.4398 39.4428 31.0442 39.138 31.6956 39.0706C32.0019 39.0373 32.3118 39.0698 32.6047 39.166C32.8976 39.2622 33.1668 39.4199 33.3945 39.6287C33.6222 39.8375 33.8031 40.0925 33.9253 40.3769C34.0475 40.6613 34.1082 40.9686 34.1033 41.2784C34.0895 41.936 33.8371 42.5659 33.3937 43.0495C32.9503 43.5331 32.3464 43.8371 31.6956 43.9042V43.9097Z" fill="white"/>
<path d="M97.4592 30.9578C96.7282 29.8157 96.244 28.532 96.038 27.1898L86.9831 27.9877V21.3589C88.613 19.5441 89.5247 17.1916 89.5458 14.7465C89.5458 9.66151 85.4477 5.89901 80.3904 6.34439C75.333 6.78977 71.2323 11.2627 71.2323 16.3559C71.2083 18.4837 71.9848 20.542 73.4063 22.1185V29.1817L71.3817 29.3593L63.0117 30.0943C63.0933 30.3523 63.1904 30.6051 63.3025 30.8512C63.7106 31.7703 64.3059 32.5931 65.0499 33.2666C65.7979 33.9391 66.6719 34.4547 67.6207 34.7831C68.599 35.1274 70.2621 35.1957 71.3817 35.0973L93.9237 33.1136L94.1085 33.0972C95.5315 32.891 96.9307 32.5432 98.2854 32.0589C97.9836 31.7127 97.7075 31.3446 97.4592 30.9578ZM80.3958 12.8038C80.7425 12.7647 81.0935 12.8007 81.4253 12.9092C81.757 13.0178 82.0619 13.1965 82.3193 13.4333C82.5767 13.6701 82.7807 13.9596 82.9176 14.2822C83.0546 14.6048 83.1213 14.9532 83.1134 15.3039C83.1 16.048 82.8163 16.7615 82.3156 17.3097C81.815 17.8579 81.1321 18.2028 80.3958 18.2795C80.0493 18.3185 79.6986 18.2826 79.367 18.1742C79.0354 18.0657 78.7308 17.8873 78.4734 17.6508C78.2161 17.4143 78.012 17.1252 77.8748 16.8029C77.7377 16.4806 77.6707 16.1325 77.6783 15.7821C77.6915 15.0376 77.9752 14.3238 78.4758 13.7752C78.9764 13.2266 79.6593 12.881 80.3958 12.8038ZM78.3712 24.7006C79.0421 24.794 79.7213 24.8105 80.3958 24.7498C80.9467 24.6999 81.4923 24.6021 82.0263 24.4574V28.4139L78.3712 28.7363V24.7006Z" fill="white"/>
</svg>
